<svg aria-hidden="true" style="position: absolute; width: 0; height: 0; overflow: hidden;" version="1.1" xmlns="http://www.w3.org/2000/svg" xmlns:xlink="http://www.w3.org/1999/xlink">
<defs>
<symbol id="facebook" viewBox="0 0 32 32">
<path d="M0 16.089c0 7.955 5.777 14.569 13.333 15.911v-11.556h-4v-4.444h4v-3.556c0-4 2.577-6.221 6.223-6.221 1.155 0 2.4 0.177 3.555 0.355v4.089h-2.044c-1.956 0-2.4 0.977-2.4 2.223v3.111h4.267l-0.711 4.444h-3.556v11.556c7.556-1.341 13.333-7.955 13.333-15.911 0-8.849-7.2-16.089-16-16.089s-16 7.24-16 16.089z"></path>
</symbol>
<symbol id="instagram" viewBox="0 0 32 32">
<path d="M9.953 1.421c1.564-0.072 2.063-0.088 6.047-0.088s4.483 0.017 6.045 0.088c1.563 0.071 2.629 0.32 3.563 0.681 0.977 0.369 1.864 0.947 2.597 1.693 0.747 0.732 1.323 1.617 1.691 2.596 0.363 0.933 0.611 2 0.683 3.56 0.072 1.567 0.088 2.065 0.088 6.048 0 3.984-0.017 4.483-0.088 6.047-0.071 1.56-0.32 2.627-0.683 3.56-0.368 0.979-0.945 1.866-1.691 2.599-0.733 0.747-1.62 1.323-2.597 1.691-0.933 0.363-2 0.611-3.56 0.683-1.565 0.072-2.064 0.088-6.048 0.088s-4.483-0.017-6.047-0.088c-1.56-0.071-2.627-0.32-3.56-0.683-0.979-0.368-1.866-0.945-2.599-1.691-0.746-0.732-1.324-1.619-1.692-2.597-0.361-0.933-0.609-2-0.681-3.56-0.072-1.567-0.088-2.065-0.088-6.048 0-3.984 0.017-4.483 0.088-6.045s0.32-2.629 0.681-3.563c0.369-0.979 0.947-1.865 1.693-2.597 0.732-0.746 1.618-1.323 2.596-1.692 0.933-0.361 2-0.609 3.56-0.681h0.001zM21.927 4.061c-1.547-0.071-2.011-0.085-5.927-0.085s-4.38 0.015-5.927 0.085c-1.431 0.065-2.207 0.304-2.724 0.505-0.684 0.267-1.173 0.583-1.687 1.096-0.487 0.473-0.861 1.050-1.096 1.687-0.201 0.517-0.44 1.293-0.505 2.724-0.071 1.547-0.085 2.011-0.085 5.927s0.015 4.38 0.085 5.927c0.065 1.431 0.304 2.207 0.505 2.724 0.235 0.636 0.609 1.213 1.096 1.687 0.473 0.487 1.051 0.861 1.687 1.096 0.517 0.201 1.293 0.44 2.724 0.505 1.547 0.071 2.009 0.085 5.927 0.085s4.38-0.015 5.927-0.085c1.431-0.065 2.207-0.304 2.724-0.505 0.684-0.267 1.173-0.583 1.687-1.096 0.487-0.473 0.861-1.051 1.096-1.687 0.201-0.517 0.44-1.293 0.505-2.724 0.071-1.547 0.085-2.011 0.085-5.927s-0.015-4.38-0.085-5.927c-0.065-1.431-0.304-2.207-0.505-2.724-0.267-0.684-0.583-1.173-1.096-1.687-0.473-0.487-1.050-0.861-1.687-1.096-0.517-0.201-1.293-0.44-2.724-0.505zM14.127 20.521c1.046 0.435 2.211 0.494 3.296 0.166s2.022-1.022 2.652-1.965c0.63-0.942 0.913-2.074 0.801-3.201s-0.612-2.181-1.415-2.981c-0.512-0.511-1.13-0.903-1.812-1.146s-1.408-0.333-2.128-0.262-1.415 0.301-2.036 0.673c-0.62 0.372-1.151 0.877-1.553 1.478s-0.665 1.285-0.772 2c-0.106 0.715-0.053 1.446 0.157 2.138s0.571 1.329 1.056 1.866c0.486 0.536 1.084 0.958 1.752 1.235zM10.669 10.669c0.7-0.7 1.531-1.255 2.446-1.634s1.895-0.574 2.885-0.574c0.99 0 1.97 0.195 2.885 0.574s1.746 0.934 2.446 1.634c0.7 0.7 1.255 1.531 1.634 2.446s0.574 1.895 0.574 2.885-0.195 1.97-0.574 2.885c-0.379 0.915-0.934 1.746-1.634 2.446-1.414 1.414-3.331 2.208-5.331 2.208s-3.917-0.794-5.331-2.208c-1.414-1.414-2.208-3.331-2.208-5.331s0.794-3.917 2.208-5.331zM25.211 9.584c0.173-0.164 0.312-0.36 0.408-0.579s0.147-0.454 0.151-0.692c0.003-0.238-0.041-0.475-0.131-0.696s-0.223-0.422-0.391-0.59c-0.169-0.169-0.369-0.302-0.59-0.391s-0.458-0.134-0.696-0.131c-0.239 0.003-0.474 0.055-0.692 0.151s-0.415 0.235-0.579 0.408c-0.318 0.337-0.493 0.785-0.486 1.249s0.194 0.907 0.522 1.235c0.328 0.328 0.771 0.515 1.235 0.522s0.912-0.167 1.249-0.486z"></path>
</symbol>
<symbol id="map" viewBox="0 0 32 32">
<path stroke-linejoin="round" stroke-linecap="round" stroke-miterlimit="4" stroke-width="1.3333" d="M16 3c-2.62 0-5.133 1.041-6.986 2.894s-2.894 4.366-2.894 6.986v0 0.72c0.4 5.413 4.893 9.767 9.88 15.4 5.207-5.88 9.88-10.333 9.88-16.12 0-2.62-1.041-5.133-2.894-6.986s-4.366-2.894-6.986-2.894zM16 8.133c0.94 0 1.86 0.279 2.641 0.802s1.391 1.265 1.751 2.134c0.36 0.869 0.453 1.825 0.269 2.747s-0.637 1.769-1.303 2.434c-0.665 0.665-1.513 1.117-2.436 1.299s-1.878 0.088-2.747-0.273c-0.869-0.361-1.61-0.971-2.132-1.754s-0.799-1.702-0.798-2.643c0.002-1.26 0.503-2.467 1.395-3.357s2.099-1.39 3.359-1.39z"></path>
</symbol>
<symbol id="phone" viewBox="0 0 32 32">
<path stroke-linejoin="round" stroke-linecap="round" stroke-miterlimit="4" stroke-width="1.3333" d="M27.147 20.187c-1.412-0.174-2.814-0.421-4.2-0.74-0.339-0.113-0.7-0.137-1.051-0.069s-0.677 0.225-0.949 0.456c-0.353 0.36-1.373 1.367-2.433 2.407-3.798-1.867-6.869-4.941-8.733-8.74 1.033-1.060 2-2.073 2.393-2.427 0.231-0.272 0.388-0.599 0.456-0.949s0.044-0.712-0.069-1.051c-0.319-1.389-0.566-2.793-0.74-4.207-0.019-0.18-0.074-0.354-0.162-0.513s-0.208-0.297-0.351-0.407c-0.143-0.11-0.308-0.19-0.483-0.235s-0.358-0.053-0.537-0.025h-5.68c-0.234 0.021-0.454 0.124-0.62 0.291s-0.267 0.387-0.287 0.622c-0.367 5.127 2.493 10.613 3.073 11.667v0.040l0.080 0.153c2.076 3.601 5.066 6.591 8.667 8.667v0l0.293 0.167c1.333 0.707 6.633 3.373 11.587 3.007 0.237-0.016 0.46-0.117 0.63-0.283s0.275-0.387 0.297-0.624v-5.673c0.028-0.179 0.019-0.361-0.025-0.537s-0.125-0.34-0.235-0.483-0.249-0.263-0.407-0.351c-0.158-0.088-0.333-0.143-0.513-0.162z"></path>
</symbol>
<symbol id="right" viewBox="0 0 30 32">
<path d="M9.986 4.666c-0.164 0.179-0.255 0.418-0.255 0.668s0.092 0.489 0.255 0.668l9.137 9.998-9.137 9.996c-0.164 0.179-0.255 0.418-0.255 0.668s0.092 0.489 0.255 0.668c0.079 0.087 0.175 0.156 0.28 0.204s0.218 0.072 0.332 0.072c0.114 0 0.227-0.024 0.332-0.072s0.2-0.116 0.28-0.204l9.716-10.634c0.171-0.187 0.266-0.437 0.266-0.698s-0.096-0.511-0.266-0.698l-9.716-10.634c-0.079-0.087-0.175-0.156-0.28-0.204s-0.218-0.072-0.332-0.072c-0.114 0-0.227 0.024-0.332 0.072s-0.2 0.116-0.28 0.204v-0.002z"></path>
</symbol>
<symbol id="left" viewBox="0 0 30 32">
<path d="M20.014 27.334c0.163-0.179 0.255-0.418 0.255-0.668s-0.092-0.489-0.255-0.668l-9.137-9.998 9.137-9.996c0.163-0.179 0.255-0.418 0.255-0.668s-0.092-0.489-0.255-0.668c-0.079-0.087-0.174-0.156-0.279-0.204s-0.218-0.072-0.332-0.072c-0.114 0-0.227 0.024-0.332 0.072s-0.2 0.116-0.279 0.204l-9.716 10.634c-0.171 0.187-0.266 0.437-0.266 0.698s0.095 0.511 0.266 0.698l9.716 10.634c0.079 0.087 0.174 0.156 0.279 0.204s0.218 0.072 0.332 0.072c0.114 0 0.227-0.024 0.332-0.072s0.2-0.116 0.279-0.204v0.002z"></path>
</symbol>
<symbol id="three" viewBox="0 0 189 32">
<path d="M32 16c0 8.837-7.163 16-16 16s-16-7.163-16-16c0-8.837 7.163-16 16-16s16 7.163 16 16z"></path>
<path stroke-linejoin="miter" stroke-linecap="butt" stroke-miterlimit="4" stroke-width="2.9091" d="M109.091 16c0 8.033-6.512 14.545-14.545 14.545s-14.545-6.512-14.545-14.545c0-8.033 6.512-14.545 14.545-14.545s14.545 6.512 14.545 14.545z"></path>
<path d="M189.091 16c0 8.837-7.163 16-16 16s-16-7.163-16-16c0-8.837 7.163-16 16-16s16 7.163 16 16z"></path>
</symbol>
<symbol id="top-one" viewBox="0 0 32 32">
<path stroke-linejoin="round" stroke-linecap="round" stroke-miterlimit="4" stroke-width="2" d="M20.667 30h-9.333M20.667 30v-13.067c0-0.247-0.098-0.485-0.273-0.66s-0.412-0.273-0.66-0.273h-7.467c-0.248 0-0.485 0.098-0.66 0.273s-0.273 0.413-0.273 0.66v13.067M20.667 30h8.4c0.247 0 0.485-0.098 0.66-0.273s0.273-0.412 0.273-0.66v-3.578c0-0.248-0.098-0.485-0.273-0.66s-0.412-0.273-0.66-0.273h-7.467c-0.247 0-0.485 0.098-0.66 0.273s-0.273 0.413-0.273 0.66v4.511zM11.333 30v-7.623c0-0.248-0.098-0.485-0.273-0.66s-0.412-0.273-0.66-0.273h-7.467c-0.248 0-0.485 0.098-0.66 0.273s-0.273 0.412-0.273 0.66v6.689c0 0.248 0.098 0.485 0.273 0.66s0.412 0.273 0.66 0.273h8.4zM14.143 5.286l1.414-2.998c0.038-0.086 0.1-0.159 0.179-0.21s0.171-0.078 0.264-0.078c0.094 0 0.186 0.027 0.264 0.078s0.141 0.124 0.179 0.21l1.416 2.998 3.161 0.484c0.406 0.062 0.568 0.585 0.274 0.884l-2.287 2.333 0.54 3.295c0.068 0.423-0.355 0.747-0.719 0.546l-2.828-1.556-2.828 1.556c-0.362 0.199-0.787-0.123-0.719-0.546l0.54-3.295-2.287-2.333c-0.296-0.299-0.132-0.821 0.272-0.884l3.164-0.484z"></path>
</symbol>
<symbol id="home" viewBox="0 0 32 32">
<path stroke-linejoin="round" stroke-linecap="round" stroke-miterlimit="4" stroke-width="2" d="M25.333 17.333v8.533c0 0.212-0.084 0.416-0.234 0.566s-0.354 0.234-0.566 0.234h-17.067c-0.212 0-0.416-0.084-0.566-0.234s-0.234-0.354-0.234-0.566v-8.533M4 12.667l12-7.333 12 7.333h-24z"></path>
</symbol>
<symbol id="suitcase" viewBox="0 0 32 32">
<path stroke-linejoin="miter" stroke-linecap="butt" stroke-miterlimit="4" stroke-width="2" d="M10.667 9.333h10.667M10.667 9.333h-5.333c-0.707 0-1.386 0.281-1.886 0.781s-0.781 1.178-0.781 1.886v13.333c0 0.707 0.281 1.386 0.781 1.886s1.178 0.781 1.886 0.781h21.333c0.707 0 1.386-0.281 1.886-0.781s0.781-1.178 0.781-1.886v-13.333c0-0.707-0.281-1.386-0.781-1.886s-1.178-0.781-1.886-0.781h-16zM10.667 9.333v-4.533c0-0.212 0.084-0.416 0.234-0.566s0.354-0.234 0.566-0.234h9.067c0.212 0 0.416 0.084 0.566 0.234s0.234 0.354 0.234 0.566v4.533h-10.667z"></path>
</symbol>
<symbol id="twitter" viewBox="0 0 32 32">
<path stroke-linejoin="round" stroke-linecap="round" stroke-miterlimit="4" stroke-width="2.6667" d="M32 5.344c0 0-1.027 2.799-2.933 4.531 2.347 13.327-13.787 23.056-26.4 15.459 3.227 0.133 6.453-0.8 8.8-2.665-7.333-1.999-11-9.862-7.333-15.992 3.227 3.465 8.213 5.464 13.2 5.331-1.32-5.597 5.867-8.796 10.267-5.064 1.613 0 4.4-1.599 4.4-1.599z"></path>
</symbol>
<symbol id="youtube" viewBox="0 0 32 32">
<path d="M29.384 5.513c-0.866-0.65-3.279-1.513-13.392-1.513-10.837 0-12.445 0.991-12.961 1.316-2.746 1.72-3.007 9.332-3.031 10.876 0.033 2.039 0.349 8.822 3.029 10.5 0.515 0.323 2.114 1.309 12.963 1.309 10.119 0 12.53-0.859 13.392-1.506 2.341-1.755 2.61-7.799 2.616-10.329-0.006-2.035-0.211-8.846-2.616-10.652l-0-0zM28.217 24.804c-0.348 0.261-2.347 1.114-12.226 1.114-9.55 0-11.554-0.773-11.933-1.011-0.964-0.603-1.981-3.803-2.061-8.721 0.079-4.907 1.11-8.49 2.063-9.085 0.38-0.239 2.391-1.018 11.931-1.018 9.871 0 11.875 0.858 12.225 1.12 0.856 0.642 1.772 4.024 1.785 8.969-0.013 5.022-0.936 7.995-1.785 8.632h0zM22.506 15.181l-8.988-5.749c-0.152-0.095-0.325-0.147-0.502-0.149s-0.351 0.044-0.505 0.134c-0.154 0.091-0.283 0.222-0.372 0.382s-0.136 0.341-0.137 0.525v11.5c0 0.276 0.105 0.541 0.293 0.736s0.441 0.305 0.706 0.305c0.182 0 0.36-0.052 0.516-0.149l8.989-5.751c0.3-0.189 0.483-0.527 0.483-0.892s-0.183-0.704-0.482-0.892h-0zM14.001 19.979v-7.812l6.056 3.906-6.056 3.907z"></path>
</symbol>
<symbol id="vector" viewBox="0 0 36 32">
<path d="M0 0h36v4h-36v-4zM0 14h36v4h-36v-4zM0 28h36v4h-36v-4z"></path>
</symbol>
<symbol id="up" viewBox="0 0 32 32">
<path stroke-linejoin="round" stroke-linecap="round" stroke-miterlimit="4" stroke-width="2" d="M25.333 26.333h-21v-21"></path>
<path stroke-linejoin="round" stroke-linecap="round" stroke-miterlimit="4" stroke-width="2" d="M4.333 21.74l10.5-9.844 3.937 3.938 5.906-5.906"></path>
</symbol>
<symbol id="message" viewBox="0 0 32 32">
<path stroke-linejoin="round" stroke-linecap="round" stroke-miterlimit="4" stroke-width="1.3333" d="M25.148 27.035c0.356-0.296 0.698-0.608 1.025-0.937M23.879 16c-0.002-1.972-0.744-3.872-2.079-5.323s-3.166-2.348-5.131-2.514c-1.965-0.166-3.921 0.412-5.48 1.62s-2.609 2.956-2.94 4.9c-0.332 1.944 0.078 3.941 1.149 5.598s2.724 2.85 4.632 3.346c1.909 0.495 3.934 0.257 5.675-0.669s3.071-2.472 3.727-4.332c0.297-0.843 0.449-1.731 0.449-2.625h-0.001z"></path>
<path stroke-linejoin="round" stroke-linecap="round" stroke-miterlimit="4" stroke-width="1.3333" d="M30.333 16c0.004-2.223-0.509-4.416-1.499-6.406s-2.428-3.723-4.203-5.061c-1.774-1.339-3.836-2.246-6.021-2.651s-4.435-0.296-6.571 0.318c-2.136 0.614-4.1 1.716-5.737 3.22s-2.901 3.367-3.694 5.444c-0.793 2.076-1.091 4.309-0.873 6.521s0.948 4.343 2.132 6.224l-0.889 5.413 5.413-0.889c1.949 1.228 4.166 1.967 6.462 2.154s4.603-0.183 6.725-1.079"></path>
<path stroke-linejoin="round" stroke-linecap="round" stroke-miterlimit="4" stroke-width="1.3333" d="M23.43 18.624c-0.963 2.348 0.605 3.611 1.953 3.918 1.645 0.373 4.95-1.346 4.95-6.542"></path>
</symbol>
<symbol id="telegram" viewBox="0 0 32 32">
<path d="M32 0l-32 18 10.227 3.788 15.773-14.788-11.998 16.186 0.010 0.004-0.012-0.004v8.814l5.735-6.691 7.265 2.691 5-28z"></path>
</symbol>
<symbol id="cross" viewBox="0 0 32 32">
<path d="M16 14.115l6.6-6.6 1.885 1.885-6.6 6.6 6.6 6.6-1.885 1.885-6.6-6.6-6.6 6.6-1.885-1.885 6.6-6.6-6.6-6.6 1.885-1.885 6.6 6.6z"></path>
</symbol>
</defs>
</svg>
